<?xml version="1.0" encoding="utf-8"?>
<svg version="1.1" id="Layer_1" xmlns="http://www.w3.org/2000/svg" xmlns:xlink="http://www.w3.org/1999/xlink" x="0px" y="0px"
	 width="800px" height="80px" viewBox="0 0 800 80" enable-background="new 0 0 800 80" xml:space="preserve">
	<polyline stroke-width="3"
      stroke-linecap="butt" fill="none" stroke-linejoin="miter" stroke="#FFFFFF" points="0,40 20,40 20,20 60,60 60,20 100,60 100,20 140.3,60
	140.3,40 179.9,40.1 180.2,52.2 181.3,59.1 182.3,38.2 183.3,27.6 184.3,53.7 185.3,57.4 186.3,52.1 187.4,13 188.4,24.2
	189.4,37.6 190.4,52.4 191.4,63.9 192.4,24.9 193.4,40.5 194.5,33.8 195.5,32.7 196.5,65.8 197.5,29.6 198.5,36.5 199.5,34.9
	200.5,34.2 201.6,58.4 202.6,53.6 203.6,54.1 204.6,64.7 205.6,47.3 206.6,46.9 207.6,56.2 208.7,44 209.7,24.6 210.7,22.2
	211.7,18.2 212.7,64.2 213.7,56.6 214.8,30.2 215.8,22 216.8,21.7 217.8,59.4 218.8,44 219.8,38.2 220.8,63.8 221.9,40.6
	222.9,21.5 223.9,46.8 224.9,26.5 225.9,26.3 226.9,47.1 228,65.7 229,61.2 230,56.3 231,33.9 232,16.3 233,41.4 234.1,53.8
	235.1,40.8 236.1,44.9 237.1,59.9 238.1,63.7 239.1,22 240.2,15.2 241.2,45.9 242.2,58.1 243.2,63.1 244.2,61.1 245.2,42.3
	246.3,24.1 247.3,33.3 248.3,30.4 249.3,54.7 250.3,30 251.3,37.8 252.4,40.5 253.4,18.5 254.4,45.8 255.4,48.1 256.4,33.1
	257.4,66.5 258.4,40.9 259.5,39.3 260.5,49.7 261.5,40.9 262.5,27.7 263.5,61.1 264.5,55.2 265.6,34 266.6,19.3 267.6,25.7
	268.6,37.2 269.6,18.4 270.6,67.3 271.7,18.7 272.7,36.5 273.7,19.3 274.7,18.2 275.7,34.6 276.8,63.8 277.8,48.5 278.8,34.8
	279.8,51.9 280.8,53 281.9,39.6 282.9,33.8 283.9,12.7 284.9,30.4 285.9,51.7 287,22.7 288,13.5 289,40 290,43.4 291,38.2
	292.1,52.9 293.1,60.4 294.1,35.2 295.1,16.4 296.1,28.6 297.2,61.3 298.2,18.7 299.2,59.9 300.2,40.1 340.2,40 340.2,20 360.2,20
	360.2,60 380.2,60 380.2,20 400.2,20 400.2,60 420.2,60 420.2,20 440.2,20 440.2,60 460.2,60 460.2,40 500.1,40 500.1,20 540.1,20
	540.1,60 580.1,60 580.1,20 620.1,20 620.1,40 660,40 680,20 720,60 760,20 780,40 800,40 "/>
</svg>
